<?xml version="1.0" encoding="UTF-8"?>
<svg xmlns="http://www.w3.org/2000/svg" width="787" height="248" viewBox="0 0 787 248">
  <g fill="none" stroke="none">
    <path d="M 472.75,202.75 L 472.75,234.00 L 473.75,237.75 L 478.25,241.50 L 565.50,241.25 L 565.75,228.50 L 564.25,226.75 L 493.50,226.50 L 492.00,224.25 L 491.75,202.25 L 490.25,201.25 L 474.25,201.25 Z M 473.75,202.75 L 475.75,201.75 L 490.50,202.75 L 490.75,224.25 L 492.75,227.25 L 562.50,227.25 L 565.25,229.25 L 565.25,239.75 L 563.25,241.50 L 480.25,241.25 L 476.25,239.25 L 473.75,235.00 Z M 185.50,196.75 L 185.50,233.25 L 188.50,239.00 L 193.50,241.50 L 293.50,242.00 L 300.25,240.25 L 304.75,235.25 L 305.00,195.50 L 302.00,190.75 L 298.25,188.75 L 193.50,188.50 L 187.25,192.75 Z M 210.25,208.50 L 211.75,207.25 L 278.75,207.25 L 280.75,209.75 L 280.75,220.50 L 278.75,222.75 L 211.50,222.75 L 210.00,220.25 Z M 169.50,161.50 L 169.50,178.00 L 171.75,179.50 L 318.25,179.50 L 321.25,178.00 L 321.25,161.25 L 319.00,160.00 L 171.50,160.00 Z M 363.00,138.25 L 356.75,140.75 L 350.50,150.25 L 348.25,162.25 L 348.25,180.25 L 350.50,192.00 L 354.75,199.00 L 360.50,203.00 L 366.25,203.75 L 374.00,200.25 L 379.25,193.00 L 382.25,178.50 L 382.25,163.50 L 381.00,154.50 L 376.25,144.25 L 373.00,140.75 L 369.00,138.75 Z M 364.25,139.00 L 371.00,140.75 L 375.50,144.75 L 378.25,149.50 L 381.25,164.25 L 380.75,182.00 L 378.25,192.50 L 372.25,200.50 L 366.00,202.75 L 360.00,201.50 L 354.50,197.00 L 350.50,188.25 L 349.25,178.25 L 349.25,163.75 L 351.25,152.00 L 355.50,143.50 L 357.75,141.25 Z M 479.25,136.50 L 474.50,139.50 L 470.75,146.75 L 470.25,165.00 L 471.50,170.50 L 474.75,175.75 L 478.00,178.00 L 482.75,178.75 L 489.75,176.00 L 492.25,172.25 L 494.75,165.25 L 495.25,154.75 L 493.25,145.25 L 490.50,139.75 L 485.25,136.50 Z M 480.75,137.50 L 486.00,138.00 L 489.75,140.75 L 492.25,145.00 L 494.50,154.75 L 492.25,170.00 L 489.00,175.25 L 483.50,177.75 L 478.50,177.25 L 475.50,175.25 L 473.25,172.00 L 471.00,163.50 L 471.00,152.00 L 472.25,145.75 L 475.75,139.50 Z M 581.75,126.00 L 581.00,138.25 L 582.00,140.25 L 605.25,140.75 L 607.50,142.50 L 607.50,158.25 L 604.25,175.25 L 597.25,187.00 L 586.75,196.50 L 577.50,202.00 L 575.25,204.50 L 581.75,215.75 L 584.75,218.00 L 599.25,209.25 L 616.75,191.00 L 626.50,202.25 L 634.75,209.25 L 647.50,217.25 L 650.50,217.25 L 656.00,210.00 L 658.25,204.00 L 641.75,192.25 L 632.50,181.00 L 627.75,168.00 L 626.25,157.25 L 626.25,142.50 L 628.25,140.75 L 651.75,140.25 L 652.75,139.00 L 652.25,126.25 L 650.00,125.25 Z M 582.75,126.75 L 650.25,126.25 L 651.50,127.25 L 651.00,139.50 L 627.50,140.00 L 625.50,141.75 L 625.75,162.25 L 630.50,179.50 L 634.50,186.00 L 641.50,193.25 L 657.50,204.50 L 650.25,216.00 L 646.75,216.00 L 635.75,209.00 L 627.25,201.75 L 616.75,189.75 L 604.25,203.75 L 598.00,209.00 L 587.00,216.00 L 584.50,216.50 L 577.25,207.25 L 576.50,204.50 L 593.00,192.75 L 600.00,185.00 L 606.50,171.00 L 608.50,159.00 L 608.25,141.25 L 606.00,140.00 L 583.00,139.50 Z M 358.00,123.75 L 350.50,125.75 L 343.25,130.50 L 338.00,136.50 L 333.50,146.00 L 330.75,160.75 L 331.50,188.75 L 335.75,202.25 L 340.50,209.00 L 345.25,213.25 L 350.00,216.00 L 357.25,218.00 L 372.00,218.00 L 384.00,213.50 L 389.25,209.00 L 395.25,200.25 L 399.25,186.00 L 400.00,179.25 L 399.25,156.50 L 395.00,141.00 L 391.00,134.75 L 384.25,128.25 L 372.25,123.75 Z M 359.50,124.25 L 371.00,124.25 L 378.75,126.50 L 385.25,130.25 L 390.50,135.75 L 395.25,143.75 L 399.00,163.50 L 399.00,179.25 L 397.00,193.00 L 393.25,202.00 L 388.75,208.25 L 383.00,213.00 L 377.50,215.75 L 367.50,217.50 L 351.75,215.75 L 342.75,209.75 L 336.25,201.25 L 334.00,195.75 L 332.00,184.75 L 331.75,160.75 L 334.25,146.25 L 338.50,137.50 L 344.00,131.25 L 351.00,126.50 Z M 668.50,119.25 L 665.50,120.50 L 665.50,240.00 L 667.50,242.00 L 682.75,242.00 L 684.50,239.75 L 684.50,120.75 L 682.00,119.25 Z M 668.50,119.75 L 682.00,119.75 L 683.50,121.50 L 683.50,239.75 L 682.25,241.50 L 668.00,241.50 L 666.75,240.00 L 666.75,120.75 Z M 546.25,119.25 L 544.25,120.25 L 544.25,209.25 L 546.00,211.50 L 559.75,211.50 L 562.00,210.25 L 562.50,120.75 L 559.50,119.25 Z M 546.25,119.75 L 561.25,120.50 L 561.25,209.00 L 559.25,210.50 L 546.50,210.50 L 545.00,208.75 L 545.00,120.50 Z M 463.50,127.75 L 458.50,133.00 L 456.25,137.50 L 452.75,154.50 L 454.50,172.50 L 456.50,178.25 L 460.50,184.25 L 464.75,188.25 L 472.50,192.25 L 487.25,193.00 L 493.00,192.00 L 501.00,187.50 L 505.00,183.00 L 509.25,175.25 L 512.00,165.75 L 517.00,165.00 L 518.75,168.50 L 518.75,209.50 L 521.50,211.50 L 535.50,211.00 L 536.50,209.25 L 536.25,120.00 L 522.25,119.25 L 518.50,120.50 L 518.75,147.25 L 516.25,149.50 L 511.25,148.00 L 509.25,139.75 L 505.50,132.75 L 501.00,127.75 L 494.75,123.75 L 487.50,121.75 L 477.00,121.75 L 468.75,124.25 Z M 466.25,126.75 L 471.25,124.25 L 479.75,122.75 L 494.00,124.25 L 499.25,127.50 L 506.50,135.75 L 510.50,148.75 L 512.50,150.00 L 517.50,150.00 L 520.00,147.75 L 520.00,120.50 L 533.25,119.75 L 535.50,120.75 L 535.00,209.50 L 533.00,210.50 L 522.50,210.50 L 520.00,208.75 L 520.00,167.75 L 518.25,164.50 L 511.50,164.50 L 506.25,179.75 L 500.00,187.00 L 491.25,191.50 L 474.25,191.75 L 467.75,189.25 L 461.50,183.75 L 456.25,175.75 L 454.50,169.00 L 454.50,146.00 L 456.50,138.50 L 460.50,132.50 Z M 417.00,119.25 L 414.75,120.25 L 414.75,241.00 L 416.00,242.00 L 432.25,242.00 L 434.00,240.50 L 434.00,120.50 L 430.50,119.25 Z M 417.00,119.75 L 432.75,120.50 L 433.00,239.25 L 431.25,241.50 L 416.75,241.50 L 415.50,240.25 L 415.50,120.50 Z M 35.25,108.75 L 28.00,117.75 L 23.50,128.00 L 22.00,137.00 L 22.00,147.50 L 23.75,157.25 L 30.50,170.00 L 40.50,179.25 L 54.25,186.00 L 68.50,189.50 L 69.25,219.00 L 66.75,221.25 L 7.25,221.50 L 6.25,224.50 L 6.50,241.25 L 157.75,241.50 L 158.50,225.50 L 157.25,221.50 L 98.25,221.25 L 94.75,219.75 L 95.25,190.00 L 112.75,185.25 L 121.75,181.00 L 133.25,171.25 L 140.00,160.00 L 143.00,146.25 L 143.00,138.00 L 139.75,123.75 L 133.00,112.25 L 124.25,104.50 L 112.75,98.50 L 72.25,88.75 L 65.00,88.75 L 64.75,107.00 L 66.00,109.00 L 100.25,117.25 L 104.50,119.50 L 113.50,127.50 L 117.25,138.25 L 116.50,150.00 L 113.50,156.75 L 110.00,160.50 L 102.00,166.00 L 95.25,168.25 L 79.75,169.25 L 70.50,168.50 L 59.25,164.25 L 51.75,157.25 L 47.50,147.50 L 47.25,138.50 L 49.25,131.50 L 53.50,124.75 L 62.25,117.50 L 62.00,97.25 L 58.50,96.50 L 44.00,102.50 Z M 185.50,71.75 L 185.00,88.00 L 186.75,90.50 L 212.00,96.25 L 278.25,96.50 L 280.75,99.50 L 280.75,102.50 L 278.75,104.50 L 196.75,104.50 L 189.75,106.50 L 186.75,109.50 L 185.00,115.25 L 185.00,142.00 L 188.75,149.00 L 196.25,151.50 L 307.25,150.75 L 307.75,136.75 L 307.25,133.75 L 305.50,132.50 L 211.75,132.50 L 210.25,131.25 L 210.25,125.75 L 212.50,123.75 L 292.50,124.00 L 299.75,123.00 L 304.75,118.75 L 306.25,110.75 L 305.25,84.50 L 300.75,79.00 L 295.00,77.25 L 213.75,77.25 L 191.50,72.00 Z M 609.50,39.00 L 609.50,69.00 L 646.75,84.00 L 649.50,84.00 L 650.50,81.50 L 650.00,54.00 L 615.00,39.75 Z M 584.00,8.75 L 582.50,10.50 L 582.50,23.25 L 583.50,25.50 L 600.75,32.50 L 603.75,32.75 L 604.75,31.00 L 604.50,16.50 Z M 661.75,6.00 L 660.75,8.50 L 661.25,94.75 L 664.75,97.00 L 701.25,110.50 L 704.00,113.00 L 707.25,113.00 L 779.25,141.00 L 780.50,139.25 L 779.75,49.75 L 663.75,5.50 Z M 675.25,22.50 L 678.00,22.25 L 713.75,36.75 L 713.75,65.50 L 708.50,65.00 L 676.50,52.50 L 674.50,50.75 L 674.25,23.75 Z" fill="#2E3192" fill-rule="evenodd"/>
    <path d="M 210.50,208.50 L 210.25,220.25 L 211.50,222.50 L 278.75,222.50 L 280.50,220.50 L 280.50,209.75 L 278.75,207.50 L 211.75,207.50 Z M 211.25,210.00 L 212.25,208.25 L 278.00,208.25 L 279.00,209.50 L 279.25,220.25 L 277.75,221.75 L 212.50,221.75 L 211.25,220.25 Z M 471.50,201.50 L 471.25,233.50 L 472.50,238.25 L 476.75,242.25 L 481.50,243.25 L 563.25,243.25 L 566.25,241.75 L 566.25,227.00 L 565.25,225.50 L 494.50,225.25 L 493.25,224.00 L 492.75,201.25 L 490.25,200.25 L 474.25,200.25 Z M 565.00,240.00 L 565.75,241.25 L 564.25,242.25 L 563.50,241.25 Z M 475.50,239.50 L 477.00,239.25 L 480.75,241.75 L 478.25,241.75 Z M 563.00,227.00 L 564.25,226.50 L 565.75,228.25 L 565.00,228.75 Z M 489.50,201.00 L 492.25,202.75 L 492.25,224.25 L 494.00,226.50 L 493.25,227.50 L 490.50,224.25 L 490.50,203.25 L 488.75,202.00 Z M 184.75,194.50 L 184.25,233.75 L 187.00,239.25 L 191.50,242.25 L 295.00,243.00 L 302.75,240.25 L 305.75,236.00 L 307.25,228.50 L 307.25,201.75 L 305.25,192.75 L 299.25,187.75 L 192.50,187.50 L 188.50,189.50 Z M 185.25,196.75 L 187.00,192.75 L 193.50,188.25 L 298.25,188.50 L 302.00,190.50 L 305.25,195.50 L 305.00,235.25 L 301.00,240.00 L 293.50,242.25 L 193.50,241.75 L 188.25,239.00 L 185.25,233.25 Z M 168.00,161.50 L 168.00,177.50 L 168.75,179.75 L 170.50,180.50 L 320.00,180.50 L 323.00,178.00 L 323.00,161.50 L 322.00,159.50 L 319.50,158.50 L 171.25,158.50 Z M 169.25,161.50 L 171.50,159.75 L 319.00,159.75 L 321.50,161.25 L 321.50,178.00 L 318.25,179.75 L 171.75,179.75 L 169.25,178.00 Z M 581.25,124.50 L 580.00,126.25 L 580.00,139.75 L 581.00,141.25 L 605.00,141.75 L 606.25,144.50 L 605.50,166.50 L 602.75,175.25 L 598.50,183.25 L 586.25,195.50 L 577.50,200.50 L 574.00,204.00 L 581.50,217.75 L 583.75,219.00 L 586.25,218.75 L 600.00,210.25 L 612.25,198.75 L 616.75,192.75 L 623.75,201.25 L 633.50,210.00 L 647.75,218.75 L 651.25,218.50 L 655.00,213.75 L 660.00,204.00 L 645.25,193.50 L 637.50,186.25 L 633.50,180.25 L 628.50,167.00 L 627.50,142.50 L 653.25,141.00 L 654.25,139.75 L 653.75,125.50 L 649.75,123.75 Z M 653.25,213.50 L 650.75,217.25 L 647.00,217.00 L 650.75,215.50 L 652.00,213.25 Z M 579.50,211.75 L 580.75,211.50 L 584.25,216.25 L 586.50,215.75 L 587.25,216.75 L 584.75,218.25 L 583.50,217.75 Z M 635.50,209.50 L 637.25,209.50 L 645.50,215.50 L 641.50,214.25 Z M 656.25,208.75 L 654.50,212.25 L 653.25,212.50 L 655.00,209.00 Z M 599.50,208.75 L 591.75,214.50 L 587.50,216.00 L 596.50,209.50 Z M 577.75,207.75 L 578.75,208.75 L 578.00,209.75 L 577.00,208.75 Z M 603.50,205.25 L 600.25,208.50 L 599.00,208.25 L 601.75,205.25 Z M 605.75,202.00 L 606.50,203.00 L 605.50,203.75 L 604.75,202.75 Z M 626.75,202.25 L 628.00,202.00 L 635.00,208.25 L 632.25,207.50 Z M 609.00,199.75 L 607.50,201.75 L 606.25,201.50 L 607.75,199.50 Z M 609.50,198.00 L 610.25,199.00 L 609.25,199.75 L 608.50,198.75 Z M 586.25,197.50 L 577.75,203.50 L 576.50,205.50 L 575.25,205.25 L 577.50,201.75 L 585.50,197.00 Z M 646.50,196.75 L 649.00,197.25 L 657.25,203.25 L 652.50,201.50 Z M 620.50,194.25 L 622.00,194.75 L 626.50,201.25 L 622.50,198.00 Z M 641.25,192.75 L 643.00,192.75 L 646.75,196.25 L 645.25,196.50 Z M 615.50,191.25 L 614.75,193.75 L 610.50,197.50 L 614.25,191.50 Z M 639.25,190.75 L 640.50,190.50 L 641.75,192.25 L 640.50,192.50 Z M 615.00,190.50 L 617.25,189.75 L 620.50,193.50 L 619.25,193.75 Z M 596.00,189.50 L 588.00,196.75 L 587.00,196.25 L 594.50,189.25 Z M 636.00,187.50 L 637.25,187.25 L 638.75,189.25 L 637.50,189.50 Z M 603.25,178.50 L 600.25,185.00 L 598.00,186.25 L 602.00,178.75 Z M 629.25,175.50 L 630.50,175.75 L 635.75,186.50 L 634.25,186.00 L 631.50,181.75 Z M 604.25,175.25 L 605.00,176.25 L 603.25,178.50 L 602.50,177.50 Z M 628.25,171.00 L 629.75,173.50 L 629.00,174.50 L 627.50,172.00 Z M 606.75,166.25 L 607.50,168.00 L 605.50,172.75 L 604.75,171.50 Z M 626.00,157.00 L 627.75,165.00 L 627.00,166.50 L 625.25,160.00 Z M 628.75,140.25 L 626.50,142.50 L 625.25,142.25 L 626.50,140.25 Z M 605.50,139.75 L 608.75,141.75 L 608.75,159.00 L 607.00,165.50 L 606.25,164.25 L 607.25,142.50 L 604.75,140.75 Z M 580.75,127.50 L 583.75,125.00 L 650.00,125.00 L 653.00,127.25 L 653.00,139.00 L 651.00,140.75 L 649.25,140.50 L 651.25,138.75 L 651.25,127.25 L 650.25,126.50 L 583.75,126.50 L 582.50,127.50 L 582.50,138.25 L 584.75,140.00 L 584.00,141.00 L 581.75,140.25 L 580.75,138.25 Z M 356.25,122.75 L 348.50,125.25 L 342.75,129.25 L 337.50,134.75 L 334.50,142.50 L 332.50,144.50 L 329.25,161.50 L 329.25,181.00 L 330.50,191.25 L 332.50,198.00 L 334.50,200.00 L 337.50,207.50 L 344.50,214.25 L 356.00,219.00 L 373.25,219.00 L 381.75,216.25 L 390.00,210.25 L 394.25,204.75 L 398.25,196.25 L 401.00,182.00 L 400.50,154.75 L 398.00,145.50 L 394.00,136.75 L 385.25,127.50 L 372.50,122.50 Z M 376.00,216.25 L 372.00,218.25 L 367.00,218.00 L 369.00,216.75 Z M 353.50,216.25 L 359.25,216.50 L 362.25,218.00 L 357.25,218.25 Z M 384.75,212.50 L 383.25,214.25 L 378.25,215.75 L 379.00,214.50 Z M 388.75,209.25 L 387.00,211.25 L 385.75,211.00 L 387.50,209.00 Z M 340.25,208.50 L 341.50,208.25 L 350.75,215.75 L 345.25,213.50 Z M 391.00,205.00 L 391.75,206.00 L 390.25,207.50 L 389.50,206.50 Z M 338.00,205.00 L 339.75,205.75 L 340.75,208.25 L 339.25,207.75 Z M 335.75,201.50 L 337.00,201.75 L 337.50,203.75 L 336.25,203.50 Z M 394.75,200.50 L 393.50,204.25 L 391.25,205.25 L 393.50,200.75 Z M 354.00,197.75 L 355.25,197.50 L 356.25,199.25 L 355.00,199.50 Z M 376.75,197.00 L 372.75,201.50 L 368.00,203.75 L 362.25,203.75 L 356.75,201.00 L 357.50,200.00 L 366.00,202.50 L 371.00,201.00 L 375.50,196.75 Z M 352.50,195.50 L 353.75,195.25 L 354.50,196.75 L 353.25,197.00 Z M 350.00,187.00 L 352.75,192.75 L 352.00,194.00 L 349.50,189.75 Z M 331.75,184.50 L 333.75,191.50 L 333.00,193.25 L 331.25,188.75 Z M 380.75,183.50 L 381.00,188.25 L 379.50,193.00 L 376.75,196.75 L 376.00,195.75 Z M 381.25,161.00 L 382.50,163.50 L 382.50,178.50 L 381.25,182.00 Z M 331.50,159.00 L 331.50,184.50 L 330.50,181.75 L 330.50,160.75 Z M 349.75,155.75 L 349.75,186.75 L 348.00,180.25 L 348.00,162.25 Z M 397.75,152.00 L 399.25,155.25 L 400.25,163.50 L 400.25,179.25 L 397.75,190.75 L 397.00,188.75 L 398.75,179.25 L 398.75,163.50 L 397.00,153.25 Z M 333.00,149.25 L 333.50,153.00 L 331.75,158.50 L 331.25,154.25 Z M 378.50,148.25 L 381.50,155.50 L 381.00,161.25 L 377.75,149.25 Z M 352.25,147.75 L 353.00,148.75 L 350.00,155.50 L 349.25,154.25 L 350.25,150.25 Z M 354.25,144.00 L 355.00,145.00 L 353.75,146.25 L 353.00,145.25 Z M 334.75,144.00 L 335.50,145.25 L 334.50,146.00 L 333.75,145.00 Z M 364.25,140.50 L 371.25,142.25 L 375.50,146.75 L 377.50,150.50 L 379.50,160.50 L 379.50,181.50 L 377.50,191.75 L 373.00,198.25 L 365.25,201.50 L 360.50,200.50 L 356.25,197.75 L 351.50,187.50 L 351.00,180.50 L 351.50,155.00 L 356.00,144.75 L 358.75,142.25 Z M 364.75,138.50 L 368.25,138.25 L 373.00,140.50 L 374.25,142.25 L 373.25,142.75 Z M 364.75,138.50 L 356.00,142.00 L 356.75,140.50 L 360.75,138.50 Z M 337.50,138.00 L 338.25,139.00 L 336.25,141.75 L 335.50,140.75 Z M 389.00,133.50 L 393.50,137.75 L 395.25,142.25 L 394.00,142.00 Z M 386.75,131.75 L 388.00,131.50 L 389.50,133.25 L 388.25,133.50 Z M 371.50,124.00 L 381.00,126.25 L 387.25,131.25 L 386.50,131.75 L 381.25,128.00 Z M 359.00,124.00 L 349.50,127.50 L 344.00,131.50 L 339.00,137.50 L 337.75,137.25 L 340.25,133.25 L 348.50,126.50 L 356.50,123.75 Z M 667.25,118.25 L 664.25,120.25 L 664.25,241.25 L 668.50,243.25 L 682.25,243.25 L 685.00,242.25 L 686.00,240.25 L 686.00,120.50 L 683.00,118.25 Z M 684.00,121.00 L 684.75,239.75 L 683.50,241.75 L 682.75,240.75 Z M 666.50,119.50 L 667.50,240.50 L 666.75,242.00 L 665.25,240.00 L 665.25,120.50 Z M 545.25,118.25 L 543.50,119.75 L 543.50,211.00 L 545.00,212.50 L 561.00,212.50 L 563.00,211.75 L 564.00,209.75 L 564.00,120.25 L 561.00,118.25 Z M 561.25,119.25 L 562.75,121.75 L 562.25,210.25 L 559.75,211.75 L 546.00,211.75 L 544.25,210.25 L 545.00,209.25 L 546.50,210.25 L 559.25,210.25 L 561.00,209.00 Z M 462.75,126.75 L 457.50,132.50 L 453.50,140.75 L 451.25,154.25 L 453.25,173.50 L 459.50,185.25 L 470.75,193.00 L 477.25,194.25 L 487.75,194.25 L 494.00,193.00 L 503.25,187.25 L 508.25,180.75 L 512.75,167.50 L 516.50,166.50 L 517.75,168.50 L 518.00,211.25 L 520.00,212.50 L 536.75,212.00 L 538.25,209.00 L 537.50,119.50 L 534.75,118.25 L 520.50,118.25 L 517.75,119.75 L 517.75,147.25 L 516.25,148.50 L 512.50,147.50 L 510.00,138.00 L 504.50,129.50 L 495.00,122.50 L 487.50,120.75 L 474.50,121.00 L 469.50,122.50 Z M 489.25,192.00 L 487.25,193.25 L 477.25,192.75 L 478.00,191.75 Z M 503.50,184.50 L 501.00,187.75 L 495.00,191.25 L 489.50,192.25 L 499.25,187.25 L 502.25,184.25 Z M 505.00,181.00 L 505.75,182.00 L 504.00,184.00 L 503.25,183.00 Z M 457.75,180.50 L 459.25,180.25 L 466.25,188.25 L 474.75,192.25 L 472.50,192.50 L 466.25,189.50 L 460.25,184.25 Z M 474.75,175.50 L 480.00,177.50 L 484.00,177.25 L 484.75,178.25 L 478.00,178.25 Z M 492.75,170.25 L 490.75,175.25 L 485.75,178.00 L 489.00,175.00 L 491.50,170.50 Z M 471.00,165.75 L 475.50,174.50 L 474.75,175.50 L 470.75,169.25 Z M 494.50,160.75 L 495.00,165.25 L 493.25,168.25 L 492.50,167.25 Z M 453.75,152.00 L 453.75,163.25 L 452.50,160.00 L 452.50,154.50 Z M 493.00,146.25 L 495.00,150.25 L 494.50,154.25 L 492.25,147.25 Z M 455.25,141.25 L 456.00,142.50 L 454.75,144.75 L 454.00,143.75 Z M 480.25,139.00 L 486.25,139.25 L 488.75,141.50 L 491.25,146.00 L 492.75,155.50 L 491.25,169.00 L 489.00,173.25 L 484.75,176.50 L 480.00,176.50 L 476.75,174.75 L 474.50,172.00 L 472.25,164.25 L 472.25,150.75 L 473.75,145.00 L 477.00,140.25 Z M 507.75,137.25 L 509.50,139.75 L 511.50,148.00 L 513.25,149.25 L 512.50,150.25 L 509.25,146.75 L 508.50,140.75 L 507.00,138.25 Z M 470.25,148.75 L 473.25,140.75 L 479.25,136.25 L 485.25,136.25 L 489.50,138.50 L 493.00,143.75 L 491.75,144.50 L 487.25,138.75 L 479.50,138.00 L 475.25,140.25 L 471.75,148.75 Z M 457.75,135.25 L 458.50,136.25 L 457.25,137.50 L 456.50,136.50 Z M 463.00,129.25 L 459.50,134.50 L 457.75,135.25 L 458.25,133.00 Z M 466.00,126.75 L 464.00,129.25 L 462.50,129.00 L 464.75,126.50 Z M 494.00,124.00 L 494.75,123.50 L 500.00,126.75 L 504.00,131.25 L 502.50,131.50 Z M 471.75,123.75 L 467.75,126.50 L 466.00,126.25 L 470.00,123.50 Z M 472.00,123.25 L 477.00,121.50 L 487.50,121.50 L 492.25,123.75 L 479.75,123.00 L 472.75,124.25 Z M 535.25,119.25 L 536.75,120.50 L 536.75,209.25 L 535.50,211.25 L 521.50,211.75 L 518.50,209.50 L 518.25,166.75 L 516.75,165.00 L 512.50,165.50 L 508.25,177.50 L 507.00,176.75 L 511.25,164.50 L 516.25,163.75 L 519.75,165.75 L 520.25,208.75 L 522.50,210.25 L 533.00,210.25 L 535.00,209.25 Z M 520.00,119.25 L 520.25,147.75 L 518.25,150.00 L 518.25,120.50 Z M 416.00,118.25 L 413.25,120.25 L 413.25,241.25 L 416.75,243.25 L 431.25,243.25 L 435.25,241.25 L 435.25,120.00 L 432.25,118.25 Z M 432.75,119.25 L 434.25,120.50 L 434.25,240.50 L 432.25,242.25 L 431.50,241.25 L 432.75,239.25 Z M 36.25,106.25 L 27.50,116.00 L 23.25,124.50 L 21.25,132.25 L 20.50,147.25 L 23.25,159.75 L 29.50,171.00 L 39.00,180.00 L 50.75,186.25 L 64.25,189.25 L 67.50,191.00 L 67.75,218.25 L 66.50,220.00 L 6.50,220.25 L 5.25,222.00 L 5.50,241.75 L 7.50,243.00 L 159.00,242.25 L 160.00,240.00 L 160.00,223.50 L 158.00,220.25 L 98.50,220.00 L 96.25,218.25 L 96.50,192.00 L 101.00,189.25 L 114.00,186.25 L 123.75,181.25 L 134.25,172.00 L 142.25,158.25 L 144.25,147.25 L 144.25,137.50 L 142.50,127.25 L 138.25,117.50 L 133.50,110.75 L 122.00,101.50 L 113.25,97.25 L 68.25,86.50 L 64.25,87.25 L 63.50,95.25 L 59.00,95.00 L 51.75,97.25 Z M 63.50,109.75 L 99.00,118.25 L 103.75,120.25 L 109.25,124.75 L 114.75,132.50 L 116.00,141.00 L 115.00,151.00 L 113.50,154.75 L 110.00,158.75 L 99.25,165.75 L 83.75,168.25 L 74.75,168.00 L 65.75,166.00 L 54.50,158.75 L 50.25,151.50 L 48.50,143.00 L 50.50,131.75 L 52.75,127.75 L 57.75,122.50 L 62.75,119.25 Z M 35.25,108.50 L 44.00,102.25 L 58.50,96.25 L 62.25,97.25 L 62.50,117.50 L 53.75,124.75 L 49.50,131.50 L 47.50,138.50 L 47.75,147.50 L 52.00,157.25 L 59.50,164.25 L 70.50,168.25 L 79.75,169.00 L 95.25,168.00 L 103.00,165.25 L 110.00,160.25 L 113.25,156.75 L 116.25,150.00 L 117.00,138.25 L 113.25,127.50 L 107.25,121.50 L 101.00,117.75 L 66.00,109.25 L 64.50,107.00 L 64.75,88.75 L 66.00,87.75 L 72.25,88.50 L 112.75,98.25 L 124.00,104.25 L 133.25,112.25 L 140.00,123.75 L 143.25,138.00 L 143.25,146.25 L 140.25,160.00 L 133.50,171.25 L 121.75,181.25 L 112.75,185.50 L 95.50,190.00 L 95.00,219.75 L 98.25,221.00 L 157.00,221.25 L 158.50,222.50 L 158.75,239.25 L 157.75,241.75 L 8.00,242.25 L 6.25,241.25 L 6.50,222.00 L 8.00,221.00 L 66.75,221.00 L 69.00,219.00 L 68.25,189.50 L 54.25,186.25 L 40.50,179.50 L 30.25,170.00 L 23.50,157.25 L 21.75,147.50 L 21.75,137.00 L 23.25,128.00 L 27.75,117.75 Z M 184.50,70.50 L 184.00,88.75 L 185.00,91.00 L 214.50,98.00 L 277.75,98.00 L 279.25,101.75 L 277.00,103.50 L 193.75,103.50 L 188.25,106.00 L 184.50,110.75 L 184.00,143.00 L 186.75,149.00 L 190.50,151.75 L 306.50,152.50 L 309.00,150.75 L 309.25,134.50 L 307.00,131.75 L 212.50,131.75 L 211.25,129.75 L 211.25,127.25 L 212.75,125.25 L 292.25,125.50 L 302.00,123.25 L 306.25,118.25 L 307.75,110.75 L 307.00,86.00 L 305.25,81.50 L 302.00,78.00 L 295.25,75.75 L 212.75,75.75 L 187.00,69.75 Z M 185.25,71.75 L 191.50,71.75 L 213.75,77.00 L 295.00,77.00 L 300.75,78.75 L 305.50,84.50 L 306.50,110.75 L 305.00,118.75 L 299.75,123.25 L 292.50,124.25 L 212.50,124.00 L 210.50,125.75 L 210.50,131.25 L 211.75,132.25 L 305.50,132.25 L 307.50,133.75 L 308.00,136.75 L 307.50,150.75 L 305.50,151.75 L 196.25,151.75 L 188.75,149.25 L 186.75,147.25 L 184.75,142.00 L 184.75,115.25 L 186.50,109.50 L 189.50,106.50 L 196.75,104.25 L 278.75,104.25 L 280.50,102.50 L 280.50,99.50 L 278.25,96.75 L 212.00,96.50 L 186.75,90.75 L 184.75,88.00 Z M 609.00,37.25 L 607.75,40.50 L 608.50,70.00 L 646.00,85.25 L 651.00,85.25 L 652.00,83.75 L 652.00,54.75 L 651.00,52.75 L 616.25,38.75 Z M 609.50,38.75 L 615.00,39.50 L 648.00,52.25 L 650.25,54.00 L 650.75,81.50 L 649.50,84.25 L 647.50,84.50 L 619.00,73.75 L 609.25,69.00 Z M 675.50,22.50 L 674.50,23.75 L 674.75,50.75 L 678.75,53.25 L 708.50,64.75 L 713.75,65.25 L 713.50,36.75 L 684.00,24.75 Z M 676.25,23.50 L 712.75,37.75 L 712.50,64.50 L 676.25,51.00 Z M 582.25,7.75 L 581.00,9.75 L 580.75,16.00 L 581.75,26.00 L 601.25,34.00 L 604.75,34.00 L 606.25,31.50 L 605.50,15.75 L 602.25,13.50 L 584.75,7.25 Z M 583.75,8.75 L 593.25,11.25 L 604.75,16.50 L 605.00,31.00 L 604.00,32.75 L 600.75,32.75 L 583.25,25.50 L 582.25,23.25 L 582.25,10.50 Z M 660.75,4.50 L 659.50,7.25 L 659.50,94.25 L 662.75,97.50 L 695.50,109.25 L 702.25,112.75 L 702.75,197.25 L 705.00,199.50 L 781.25,141.00 L 781.25,49.50 L 774.25,45.50 L 748.25,36.50 L 716.25,23.50 L 708.50,21.50 L 706.25,19.75 L 665.25,4.50 Z M 662.25,5.50 L 676.00,9.50 L 778.00,48.25 L 780.75,51.50 L 780.50,140.00 L 764.25,153.50 L 705.00,198.25 L 703.50,196.50 L 703.75,113.00 L 701.25,110.75 L 665.50,97.50 L 660.50,94.00 L 660.50,8.50 Z" fill="#3B3B3D" fill-rule="evenodd"/>
    <path d="M 778.00,140.75 L 776.25,139.50 L 772.00,138.50 L 708.00,113.50 L 704.25,113.00 L 704.00,197.50 L 705.25,198.00 L 759.75,156.00 L 764.25,153.25 L 778.25,142.25 Z" fill="#F37121" fill-rule="evenodd"/>
  </g>
</svg>
